<svg id="Capa_1" style="background-color:#fff" enable-background="new 0 0 512 512" height="512" viewBox="0 0 512 512" width="512" xmlns="http://www.w3.org/2000/svg"><g><path d="m418.13 235.175-16.254-65.015c-6.132-24.529-28.074-41.66-53.358-41.66h-22.518v-25c0-19.299-15.701-35-35-35h-70c-19.299 0-35 15.701-35 35v25h-22.519c-25.284 0-47.226 17.131-53.358 41.66l-16.253 65.015c-18.938 5.309-32.87 22.715-32.87 43.325v60c0 21.375 14.986 39.305 35 43.866v26.134c0 19.299 15.701 35 35 35h30c19.299 0 35-15.701 35-35v-25h120v25c0 19.299 15.701 35 35 35h30c19.299 0 35-15.701 35-35v-26.134c20.014-4.561 35-22.491 35-43.866v-60c0-20.61-13.932-38.016-32.87-43.325zm-202.13-131.675c0-2.757 2.243-5 5-5h70c2.757 0 5 2.243 5 5v25h-80zm-52.519 55h185.038c11.493 0 21.466 7.787 24.253 18.937l14.016 56.063h-22.555c-6.792-28.631-32.556-50-63.234-50s-56.442 21.369-63.234 50h-112.554l14.016-56.063c2.788-11.15 12.761-18.937 24.254-18.937zm169.135 75h-63.232c5.628-11.814 17.682-20 31.616-20s25.988 8.186 31.616 20zm-166.616 175c0 2.757-2.243 5-5 5h-30c-2.757 0-5-2.243-5-5v-25h40zm65-55v-25c0-2.757 2.243-5 5-5h40c2.757 0 5 2.243 5 5v25zm155 55c0 2.757-2.243 5-5 5h-30c-2.757 0-5-2.243-5-5v-25h40zm35-70c0 8.271-6.729 15-15 15h-95v-25c0-19.299-15.701-35-35-35h-40c-19.299 0-35 15.701-35 35v25h-95c-8.271 0-15-6.729-15-15v-60c0-8.271 6.729-15 15-15h300c8.271 0 15 6.729 15 15z"/><path d="m381 293.5h-30c-8.284 0-15 6.716-15 15s6.716 15 15 15h30c8.284 0 15-6.716 15-15s-6.716-15-15-15z"/><path d="m161 293.5h-30c-8.284 0-15 6.716-15 15s6.716 15 15 15h30c8.284 0 15-6.716 15-15s-6.716-15-15-15z"/><path d="m457 0h-402c-30.327 0-55 24.673-55 55v402c0 30.327 24.673 55 55 55h402c30.327 0 55-24.673 55-55v-402c0-30.327-24.673-55-55-55zm25 457c0 13.785-11.215 25-25 25h-402c-13.785 0-25-11.215-25-25v-402c0-13.785 11.215-25 25-25h402c13.785 0 25 11.215 25 25z"/></g></svg>